<mxfile host="app.diagrams.net" agent="Mozilla/5.0 (Windows NT 10.0; Win64; x64) AppleWebKit/537.36 (KHTML, like Gecko) Chrome/132.0.0.0 Safari/537.36 OPR/117.0.0.0 (Edition std-1)" version="26.2.13">
  <diagram name="Page-1" id="2a216829-ef6e-dabb-86c1-c78162f3ba2b">
    <mxGraphModel dx="1180" dy="675" grid="1" gridSize="10" guides="1" tooltips="1" connect="1" arrows="1" fold="1" page="1" pageScale="1" pageWidth="850" pageHeight="1100" background="none" math="0" shadow="0">
      <root>
        <mxCell id="0" />
        <mxCell id="1" parent="0" />
        <mxCell id="0G2xE4ultLcCvQhKIERM-2" value="" style="shape=stencil(lVbLchNBDPyavXZpNE+dQ/iPVMXBLoydchwgfx8tWwuWYgu4rWe7rZFardWU7162D8+bienlfDp+3fzYPZ63U/40Me8O281pd9anKd9P+e7peNp8OR1fD4/L7+eHGTk/fTt+n//h58LjAiozi+ltORlg+XXwecHvd4cLfCfUYfAEqgFekIrDj3QbPzpSMviG0m/jJaM1g09KKAFhILEhsKCN24REmiEZRinoQY1EfIhGYAoIFdUm0QtyQBiCbq80KlpEYCQbQRiSA90yutVhvmQgXKtgFyGDgirVjtZ9DhLkUBN69VXqAaGMD71Ea8zrBG0+G6FoVkFvaASx3Z0JKShrzci2NbRdIz9UwXC9hM6BDB3dykCQAN8bcnJ4ihqpoFrVdIBE/kxoYhPmUDRpaxP89meBxG5rdiJlPQlGkhK6LWmt65C6Tuggp4GqEkVIGPZK6j8O2kKrOpzbKExaZXMyqD056KOZMP6HwB8IF4PwOoNQXAgBB72Xip/deqfIDIJi7alzMKqSytq9DBTYWd+6Mcyogc7kvdMSJMS7D0nVj2Fw/+TvX/QfgjbSmW2nkVZMgny7/+xoxBwYQa1bbMKzhIFgaXjnJFpzuq5AWbeJf1tH/r6+6MOf3edpt98vq9Ple78r6dGyZ+X7dw==);lineShape=1;strokeColor=default;" vertex="1" parent="1">
          <mxGeometry x="1499.3429955826437" y="905.5467809170732" width="11.06160184916202" height="6.113760157228237" as="geometry" />
        </mxCell>
        <mxCell id="0G2xE4ultLcCvQhKIERM-3" value="&lt;span style=&quot;font-weight: normal;&quot;&gt;&lt;font style=&quot;font-size: 14px;&quot;&gt;User&lt;/font&gt;&lt;/span&gt;" style="swimlane;horizontal=0;whiteSpace=wrap;html=1;startSize=23;" vertex="1" parent="1">
          <mxGeometry x="180" y="140" width="970" height="80" as="geometry" />
        </mxCell>
        <mxCell id="0G2xE4ultLcCvQhKIERM-4" value="&lt;span style=&quot;font-weight: normal;&quot;&gt;&lt;font style=&quot;font-size: 14px;&quot;&gt;MyWaze&lt;/font&gt;&lt;/span&gt;" style="swimlane;horizontal=0;whiteSpace=wrap;html=1;startSize=23;" vertex="1" parent="1">
          <mxGeometry x="180" y="290" width="970" height="260" as="geometry" />
        </mxCell>
        <mxCell id="7a84cebc1def654-26" value="" style="shape=mxgraph.bpmn.shape;html=1;verticalLabelPosition=bottom;labelBackgroundColor=#ffffff;verticalAlign=top;perimeter=ellipsePerimeter;outline=end;symbol=general;" parent="0G2xE4ultLcCvQhKIERM-4" vertex="1">
          <mxGeometry x="400" y="190" width="50" height="50" as="geometry" />
        </mxCell>
        <mxCell id="7a84cebc1def654-39" style="edgeStyle=orthogonalEdgeStyle;rounded=0;html=1;jettySize=auto;orthogonalLoop=1;exitX=1;exitY=0.5;exitDx=0;exitDy=0;exitPerimeter=0;entryX=0;entryY=0.5;entryDx=0;entryDy=0;entryPerimeter=0;" parent="0G2xE4ultLcCvQhKIERM-4" source="0G2xE4ultLcCvQhKIERM-40" target="0G2xE4ultLcCvQhKIERM-9" edge="1">
          <mxGeometry relative="1" as="geometry">
            <mxPoint x="390" y="110" as="sourcePoint" />
            <mxPoint x="420" y="100" as="targetPoint" />
          </mxGeometry>
        </mxCell>
        <mxCell id="0G2xE4ultLcCvQhKIERM-44" value="Yes" style="edgeLabel;html=1;align=center;verticalAlign=middle;resizable=0;points=[];" vertex="1" connectable="0" parent="7a84cebc1def654-39">
          <mxGeometry x="-0.28" y="1" relative="1" as="geometry">
            <mxPoint as="offset" />
          </mxGeometry>
        </mxCell>
        <mxCell id="7a84cebc1def654-47" style="edgeStyle=orthogonalEdgeStyle;rounded=0;html=1;jettySize=auto;orthogonalLoop=1;exitX=1;exitY=0.5;exitDx=0;exitDy=0;exitPerimeter=0;" parent="0G2xE4ultLcCvQhKIERM-4" source="0G2xE4ultLcCvQhKIERM-9" target="0G2xE4ultLcCvQhKIERM-10" edge="1">
          <mxGeometry relative="1" as="geometry">
            <mxPoint x="500" y="150" as="sourcePoint" />
            <mxPoint x="560" y="40" as="targetPoint" />
          </mxGeometry>
        </mxCell>
        <mxCell id="0G2xE4ultLcCvQhKIERM-9" value="Get speed limit of Location&lt;div&gt;&amp;nbsp;from GPS&lt;/div&gt;" style="points=[[0.25,0,0],[0.5,0,0],[0.75,0,0],[1,0.25,0],[1,0.5,0],[1,0.75,0],[0.75,1,0],[0.5,1,0],[0.25,1,0],[0,0.75,0],[0,0.5,0],[0,0.25,0]];shape=mxgraph.bpmn.task2;whiteSpace=wrap;rectStyle=rounded;size=10;html=1;container=1;expand=0;collapsible=0;taskMarker=service;" vertex="1" parent="0G2xE4ultLcCvQhKIERM-4">
          <mxGeometry x="490" y="70" width="120" height="80" as="geometry" />
        </mxCell>
        <mxCell id="0G2xE4ultLcCvQhKIERM-13" style="edgeStyle=orthogonalEdgeStyle;rounded=0;html=1;jettySize=auto;orthogonalLoop=1;exitX=0.5;exitY=0;exitDx=0;exitDy=0;exitPerimeter=0;entryX=0.5;entryY=0;entryDx=0;entryDy=0;entryPerimeter=0;" edge="1" parent="0G2xE4ultLcCvQhKIERM-4" source="0G2xE4ultLcCvQhKIERM-10" target="0G2xE4ultLcCvQhKIERM-17">
          <mxGeometry relative="1" as="geometry">
            <Array as="points">
              <mxPoint x="695" y="40" />
              <mxPoint x="185" y="40" />
            </Array>
            <mxPoint x="660" y="120" as="sourcePoint" />
            <mxPoint x="150" y="180" as="targetPoint" />
          </mxGeometry>
        </mxCell>
        <mxCell id="0G2xE4ultLcCvQhKIERM-43" value="No" style="edgeLabel;html=1;align=center;verticalAlign=middle;resizable=0;points=[];" vertex="1" connectable="0" parent="0G2xE4ultLcCvQhKIERM-13">
          <mxGeometry x="0.0709" y="2" relative="1" as="geometry">
            <mxPoint as="offset" />
          </mxGeometry>
        </mxCell>
        <mxCell id="7a84cebc1def654-50" style="edgeStyle=orthogonalEdgeStyle;rounded=0;html=1;jettySize=auto;orthogonalLoop=1;exitX=1;exitY=0.5;exitDx=0;exitDy=0;exitPerimeter=0;" parent="0G2xE4ultLcCvQhKIERM-4" source="0G2xE4ultLcCvQhKIERM-10" edge="1">
          <mxGeometry relative="1" as="geometry">
            <Array as="points" />
            <mxPoint x="710" y="110" as="sourcePoint" />
            <mxPoint x="790" y="110" as="targetPoint" />
          </mxGeometry>
        </mxCell>
        <mxCell id="0G2xE4ultLcCvQhKIERM-12" value="Yes" style="edgeLabel;html=1;align=center;verticalAlign=middle;resizable=0;points=[];" vertex="1" connectable="0" parent="7a84cebc1def654-50">
          <mxGeometry x="0.2769" y="-1" relative="1" as="geometry">
            <mxPoint as="offset" />
          </mxGeometry>
        </mxCell>
        <mxCell id="0G2xE4ultLcCvQhKIERM-10" value="Is user speed over the limit?" style="points=[[0.25,0.25,0],[0.5,0,0],[0.75,0.25,0],[1,0.5,0],[0.75,0.75,0],[0.5,1,0],[0.25,0.75,0],[0,0.5,0]];shape=mxgraph.bpmn.gateway2;html=1;verticalLabelPosition=bottom;labelBackgroundColor=#ffffff;verticalAlign=top;align=center;perimeter=rhombusPerimeter;outlineConnect=0;outline=none;symbol=none;gwType=exclusive;" vertex="1" parent="0G2xE4ultLcCvQhKIERM-4">
          <mxGeometry x="670" y="85" width="50" height="50" as="geometry" />
        </mxCell>
        <mxCell id="0G2xE4ultLcCvQhKIERM-25" value="Display speed Alert violation on screen" style="points=[[0.25,0,0],[0.5,0,0],[0.75,0,0],[1,0.25,0],[1,0.5,0],[1,0.75,0],[0.75,1,0],[0.5,1,0],[0.25,1,0],[0,0.75,0],[0,0.5,0],[0,0.25,0]];shape=mxgraph.bpmn.task2;whiteSpace=wrap;rectStyle=rounded;size=10;html=1;container=1;expand=0;collapsible=0;taskMarker=service;" vertex="1" parent="0G2xE4ultLcCvQhKIERM-4">
          <mxGeometry x="790" y="70" width="120" height="80" as="geometry" />
        </mxCell>
        <mxCell id="0G2xE4ultLcCvQhKIERM-19" value="" style="endArrow=none;dashed=1;html=1;dashPattern=1 3;strokeWidth=2;rounded=0;" edge="1" parent="0G2xE4ultLcCvQhKIERM-4">
          <mxGeometry width="50" height="50" relative="1" as="geometry">
            <mxPoint x="850" y="70" as="sourcePoint" />
            <mxPoint x="850" y="-70" as="targetPoint" />
          </mxGeometry>
        </mxCell>
        <mxCell id="0G2xE4ultLcCvQhKIERM-23" value="" style="shape=flexArrow;endArrow=classic;html=1;rounded=0;width=5.76;endSize=2.7312;endWidth=6.9184;" edge="1" parent="0G2xE4ultLcCvQhKIERM-4">
          <mxGeometry width="50" height="50" relative="1" as="geometry">
            <mxPoint x="850" y="-60" as="sourcePoint" />
            <mxPoint x="850" y="-70" as="targetPoint" />
          </mxGeometry>
        </mxCell>
        <mxCell id="0G2xE4ultLcCvQhKIERM-47" value="" style="edgeStyle=orthogonalEdgeStyle;rounded=0;orthogonalLoop=1;jettySize=auto;html=1;" edge="1" parent="0G2xE4ultLcCvQhKIERM-4" source="0G2xE4ultLcCvQhKIERM-40" target="7a84cebc1def654-26">
          <mxGeometry relative="1" as="geometry" />
        </mxCell>
        <mxCell id="0G2xE4ultLcCvQhKIERM-48" value="No" style="edgeLabel;html=1;align=center;verticalAlign=middle;resizable=0;points=[];" vertex="1" connectable="0" parent="0G2xE4ultLcCvQhKIERM-47">
          <mxGeometry x="-0.4691" y="-1" relative="1" as="geometry">
            <mxPoint as="offset" />
          </mxGeometry>
        </mxCell>
        <mxCell id="0G2xE4ultLcCvQhKIERM-40" value="" style="points=[[0.25,0.25,0],[0.5,0,0],[0.75,0.25,0],[1,0.5,0],[0.75,0.75,0],[0.5,1,0],[0.25,0.75,0],[0,0.5,0]];shape=mxgraph.bpmn.gateway2;html=1;verticalLabelPosition=bottom;labelBackgroundColor=#ffffff;verticalAlign=top;align=center;perimeter=rhombusPerimeter;outlineConnect=0;outline=none;symbol=none;gwType=exclusive;" vertex="1" parent="0G2xE4ultLcCvQhKIERM-4">
          <mxGeometry x="400" y="85" width="50" height="50" as="geometry" />
        </mxCell>
        <mxCell id="0G2xE4ultLcCvQhKIERM-41" value="" style="edgeStyle=orthogonalEdgeStyle;rounded=0;html=1;jettySize=auto;orthogonalLoop=1;exitX=1;exitY=0.5;exitDx=0;exitDy=0;exitPerimeter=0;entryX=0;entryY=0.5;entryDx=0;entryDy=0;entryPerimeter=0;" edge="1" parent="0G2xE4ultLcCvQhKIERM-4" source="0G2xE4ultLcCvQhKIERM-8" target="0G2xE4ultLcCvQhKIERM-40">
          <mxGeometry relative="1" as="geometry">
            <mxPoint x="570" y="400" as="sourcePoint" />
            <mxPoint x="670" y="400" as="targetPoint" />
          </mxGeometry>
        </mxCell>
        <mxCell id="0G2xE4ultLcCvQhKIERM-46" value="&lt;span style=&quot;background-color: rgb(255, 255, 255);&quot;&gt;Is the trip still active?&lt;/span&gt;" style="text;html=1;align=center;verticalAlign=middle;resizable=0;points=[];autosize=1;strokeColor=none;fillColor=none;" vertex="1" parent="0G2xE4ultLcCvQhKIERM-4">
          <mxGeometry x="360" y="55" width="130" height="30" as="geometry" />
        </mxCell>
        <mxCell id="7a84cebc1def654-1" value="SpeedAlert process" style="shape=mxgraph.bpmn.shape;html=1;verticalLabelPosition=bottom;labelBackgroundColor=#ffffff;verticalAlign=top;perimeter=ellipsePerimeter;outline=standard;symbol=general;" parent="0G2xE4ultLcCvQhKIERM-4" vertex="1">
          <mxGeometry x="70" y="85" width="50" height="50" as="geometry" />
        </mxCell>
        <mxCell id="7a84cebc1def654-4" value="" style="shape=message;whiteSpace=wrap;html=1;" parent="0G2xE4ultLcCvQhKIERM-4" vertex="1">
          <mxGeometry x="75" y="95" width="40" height="30" as="geometry" />
        </mxCell>
        <mxCell id="7a84cebc1def654-36" style="edgeStyle=orthogonalEdgeStyle;rounded=0;html=1;jettySize=auto;orthogonalLoop=1;entryX=0;entryY=0.5;entryDx=0;entryDy=0;entryPerimeter=0;" parent="0G2xE4ultLcCvQhKIERM-4" source="7a84cebc1def654-1" target="0G2xE4ultLcCvQhKIERM-17" edge="1">
          <mxGeometry relative="1" as="geometry">
            <mxPoint x="170" y="60" as="targetPoint" />
          </mxGeometry>
        </mxCell>
        <mxCell id="0G2xE4ultLcCvQhKIERM-8" value="Get Speed of User and his location&lt;div&gt;&amp;nbsp;from GPS update&lt;/div&gt;" style="points=[[0.25,0,0],[0.5,0,0],[0.75,0,0],[1,0.25,0],[1,0.5,0],[1,0.75,0],[0.75,1,0],[0.5,1,0],[0.25,1,0],[0,0.75,0],[0,0.5,0],[0,0.25,0]];shape=mxgraph.bpmn.task2;whiteSpace=wrap;rectStyle=rounded;size=10;html=1;container=1;expand=0;collapsible=0;taskMarker=service;" vertex="1" parent="0G2xE4ultLcCvQhKIERM-4">
          <mxGeometry x="240" y="70" width="120" height="80" as="geometry" />
        </mxCell>
        <mxCell id="0G2xE4ultLcCvQhKIERM-17" value="" style="points=[[0.25,0.25,0],[0.5,0,0],[0.75,0.25,0],[1,0.5,0],[0.75,0.75,0],[0.5,1,0],[0.25,0.75,0],[0,0.5,0]];shape=mxgraph.bpmn.gateway2;html=1;verticalLabelPosition=bottom;labelBackgroundColor=#ffffff;verticalAlign=top;align=center;perimeter=rhombusPerimeter;outlineConnect=0;outline=none;symbol=none;gwType=exclusive;" vertex="1" parent="0G2xE4ultLcCvQhKIERM-4">
          <mxGeometry x="160" y="85" width="50" height="50" as="geometry" />
        </mxCell>
        <mxCell id="0G2xE4ultLcCvQhKIERM-18" style="edgeStyle=orthogonalEdgeStyle;rounded=0;html=1;jettySize=auto;orthogonalLoop=1;exitX=1;exitY=0.5;exitDx=0;exitDy=0;exitPerimeter=0;" edge="1" parent="0G2xE4ultLcCvQhKIERM-4" source="0G2xE4ultLcCvQhKIERM-17">
          <mxGeometry relative="1" as="geometry">
            <mxPoint x="130" y="120" as="sourcePoint" />
            <mxPoint x="240" y="110" as="targetPoint" />
          </mxGeometry>
        </mxCell>
        <mxCell id="0G2xE4ultLcCvQhKIERM-32" value="" style="shape=flexArrow;endArrow=classic;html=1;rounded=0;width=5.76;endSize=2.7312;endWidth=6.9184;" edge="1" parent="0G2xE4ultLcCvQhKIERM-4">
          <mxGeometry width="50" height="50" relative="1" as="geometry">
            <mxPoint x="94.89" y="75" as="sourcePoint" />
            <mxPoint x="94.89" y="85" as="targetPoint" />
          </mxGeometry>
        </mxCell>
        <mxCell id="0G2xE4ultLcCvQhKIERM-5" value="" style="endArrow=none;dashed=1;html=1;dashPattern=1 3;strokeWidth=2;rounded=0;exitX=0.5;exitY=0;exitDx=0;exitDy=0;" edge="1" parent="0G2xE4ultLcCvQhKIERM-4" source="7a84cebc1def654-1" target="0G2xE4ultLcCvQhKIERM-6">
          <mxGeometry width="50" height="50" relative="1" as="geometry">
            <mxPoint x="310" y="160" as="sourcePoint" />
            <mxPoint x="125" y="-70" as="targetPoint" />
          </mxGeometry>
        </mxCell>
        <mxCell id="0G2xE4ultLcCvQhKIERM-7" value="Send GPS update" style="edgeLabel;html=1;align=center;verticalAlign=middle;resizable=0;points=[];" vertex="1" connectable="0" parent="0G2xE4ultLcCvQhKIERM-5">
          <mxGeometry x="0.2117" y="-3" relative="1" as="geometry">
            <mxPoint as="offset" />
          </mxGeometry>
        </mxCell>
        <mxCell id="0G2xE4ultLcCvQhKIERM-6" value="" style="ellipse;whiteSpace=wrap;html=1;" vertex="1" parent="0G2xE4ultLcCvQhKIERM-4">
          <mxGeometry x="85" y="-70" width="20" height="20" as="geometry" />
        </mxCell>
        <mxCell id="0G2xE4ultLcCvQhKIERM-49" value="Speed Limit Data" style="shape=datastore;html=1;labelPosition=center;verticalLabelPosition=bottom;align=center;verticalAlign=top;" vertex="1" parent="0G2xE4ultLcCvQhKIERM-4">
          <mxGeometry x="525" y="170" width="50" height="55" as="geometry" />
        </mxCell>
        <mxCell id="0G2xE4ultLcCvQhKIERM-52" value="" style="endArrow=classic;html=1;rounded=0;entryX=0.5;entryY=1;entryDx=0;entryDy=0;entryPerimeter=0;exitX=0.5;exitY=0;exitDx=0;exitDy=0;" edge="1" parent="0G2xE4ultLcCvQhKIERM-4" source="0G2xE4ultLcCvQhKIERM-49" target="0G2xE4ultLcCvQhKIERM-9">
          <mxGeometry width="50" height="50" relative="1" as="geometry">
            <mxPoint x="520" y="200" as="sourcePoint" />
            <mxPoint x="570" y="150" as="targetPoint" />
          </mxGeometry>
        </mxCell>
      </root>
    </mxGraphModel>
  </diagram>
</mxfile>
